<?xml version="1.0" standalone="no"?>
<!DOCTYPE svg PUBLIC "-//W3C//DTD SVG 20010904//EN"
 "http://www.w3.org/TR/2001/REC-SVG-20010904/DTD/svg10.dtd">
<svg version="1.0" xmlns="http://www.w3.org/2000/svg"
 width="522.000000pt" height="522.000000pt" viewBox="0 0 522.000000 522.000000"
 preserveAspectRatio="xMidYMid meet">
<metadata>
Created by potrace 1.14, written by Peter Selinger 2001-2017
</metadata>
<g transform="translate(0.000000,522.000000) scale(0.100000,-0.100000)"
fill="#000000" stroke="none">
<path d="M1810 4774 c-50 -22 -89 -62 -116 -119 l-24 -50 0 -577 0 -578 -609
0 c-662 0 -664 0 -723 -57 -14 -14 -36 -47 -48 -74 -20 -48 -20 -57 -18 -741
l3 -693 27 -45 c29 -50 66 -81 117 -98 25 -9 203 -12 642 -12 l609 0 0 -600
c0 -655 -2 -633 59 -702 65 -75 31 -72 826 -69 688 2 711 3 752 22 24 12 55
35 69 52 58 68 56 53 62 700 l5 597 560 0 c390 0 571 3 598 11 50 15 105 62
129 110 19 37 20 62 21 732 1 754 3 725 -56 795 -15 18 -45 42 -66 52 -37 19
-62 20 -613 20 l-575 0 -3 578 -3 578 -30 59 c-23 45 -42 66 -79 90 l-49 30
-716 2 c-623 2 -721 0 -751 -13z m1430 -179 c0 -9 -14 -17 -37 -21 -21 -3
-146 -41 -279 -84 -275 -90 -265 -89 -647 -89 -186 -1 -238 -4 -234 -13 3 -12
10 -14 60 -17 10 -1 17 -9 17 -21 0 -16 -7 -20 -35 -20 -28 0 -35 -4 -35 -20
0 -11 5 -20 10 -20 6 0 10 -7 10 -16 0 -18 24 -44 40 -44 7 0 9 -7 6 -16 -3
-9 -6 -18 -6 -20 0 -2 -6 -4 -12 -4 -7 0 -25 -13 -40 -29 l-28 -27 -2 -512 -3
-512 -65 60 -65 60 -325 -5 c-692 -12 -810 -16 -810 -31 0 -8 -9 -14 -20 -14
-11 0 -20 7 -20 15 0 8 -9 15 -20 15 -13 0 -20 -7 -20 -20 0 -11 -6 -20 -12
-20 -27 0 -88 22 -83 29 2 5 -11 8 -29 7 -19 0 -32 -5 -29 -9 3 -5 11 -6 19
-3 10 4 14 0 12 -12 -2 -9 3 -16 10 -14 6 1 12 -3 12 -9 0 -6 14 -27 30 -46
25 -28 30 -42 29 -86 0 -48 -15 -148 -18 -119 -1 13 -29 16 -56 6 -13 -5 -14
-8 -3 -15 9 -6 6 -9 -10 -9 -26 0 -56 -25 -59 -49 -1 -9 -5 -36 -8 -61 -4 -25
-10 -110 -14 -190 -6 -116 -8 -64 -10 261 -1 363 1 408 15 413 9 3 324 6 700
6 l685 0 -1 663 c-1 364 -1 665 -1 670 1 4 312 7 691 7 597 0 690 -2 690 -15z
m-1069 -373 c-7 -2 -18 1 -23 6 -8 8 -4 9 13 5 13 -4 18 -8 10 -11z m459 -650
c19 -9 48 -37 65 -60 l30 -44 3 -351 3 -352 378 3 c424 4 444 2 502 -57 85
-85 71 -210 -30 -278 -34 -23 -34 -23 -442 -23 l-409 0 0 -347 c0 -331 -1
-349 -21 -390 -70 -145 -288 -125 -328 30 -7 30 -11 161 -11 376 l0 331 -419
0 c-417 0 -418 0 -451 23 -80 53 -101 169 -45 248 61 86 46 84 508 87 l407 3
0 335 c0 352 3 377 48 428 50 56 143 73 212 38z"/>
<path d="M2070 4208 c0 -4 7 -8 15 -8 8 0 15 4 15 8 0 5 -7 9 -15 9 -8 0 -15
-4 -15 -9z"/>
<path d="M1345 4510 c-130 -68 -312 -202 -449 -331 -125 -117 -323 -366 -347
-437 -27 -82 48 -151 121 -112 11 6 65 72 122 148 169 226 355 397 592 542
116 71 144 127 94 184 -36 40 -66 41 -133 6z"/>
<path d="M3621 4504 c-27 -34 -27 -74 -1 -107 12 -15 79 -65 150 -112 246
-162 422 -334 593 -577 27 -37 56 -72 67 -78 53 -28 130 15 130 74 0 49 -95
189 -239 355 -129 147 -393 359 -556 446 -65 34 -117 33 -144 -1z"/>
<path d="M1223 3964 c-67 -33 -100 -137 -66 -204 53 -102 212 -108 265 -9 28
52 24 130 -8 169 -51 60 -125 77 -191 44z m102 -24 c3 -5 -3 -10 -15 -10 -46
0 -90 -49 -90 -100 0 -11 -4 -20 -10 -20 -14 0 -50 38 -50 53 1 18 26 48 57
69 30 19 98 24 108 8z"/>
<path d="M3755 3965 c-43 -20 -60 -36 -80 -74 -24 -47 -16 -110 20 -157 58
-75 147 -81 218 -14 37 34 41 42 44 96 3 47 0 66 -16 92 -41 65 -119 89 -186
57z m90 -25 c3 -6 -4 -10 -18 -10 -34 0 -70 -31 -92 -79 -20 -46 -35 -45 -35
4 0 45 55 95 105 95 18 0 37 -4 40 -10z"/>
<path d="M569 1531 c-54 -55 -37 -106 100 -293 163 -224 368 -413 606 -557
119 -73 158 -79 199 -30 29 34 33 74 11 106 -8 11 -60 49 -115 82 -259 160
-427 324 -620 607 -83 121 -125 141 -181 85z"/>
<path d="M4431 1547 c-13 -6 -50 -52 -84 -102 -125 -187 -225 -302 -367 -420
-85 -70 -221 -168 -293 -210 -59 -34 -81 -65 -79 -112 2 -47 35 -83 76 -83 69
0 330 177 493 334 130 124 212 222 308 366 76 114 88 148 65 191 -11 20 -60
49 -82 48 -7 0 -24 -5 -37 -12z"/>
<path d="M1222 1489 c-139 -71 -89 -289 67 -289 79 0 140 54 156 137 8 42 -26
117 -66 146 -41 30 -106 32 -157 6z m97 -18 c10 -6 4 -12 -21 -20 -42 -14 -74
-46 -83 -83 -8 -32 -30 -37 -44 -10 -31 58 89 150 148 113z"/>
<path d="M3767 1495 c-135 -47 -142 -222 -12 -285 75 -36 162 -2 197 77 32 74
-3 167 -77 203 -48 23 -57 24 -108 5z m51 -21 c28 -8 29 -24 2 -24 -35 0 -69
-30 -82 -71 -14 -49 -33 -45 -32 7 1 30 9 44 35 66 35 30 41 31 77 22z"/>
</g>
</svg>
